<?xml version="1.0" encoding="UTF-8"?>
<svg xmlns="http://www.w3.org/2000/svg" xmlns:xlink="http://www.w3.org/1999/xlink" width="14pt" height="14pt" viewBox="0 0 14 14" version="1.1">
<g id="surface1">
<path style=" stroke:none;fill-rule:nonzero;fill:rgb(0%,0%,0%);fill-opacity:1;" d="M 9.558594 2.699219 C 8.09375 2.699219 6.882812 1.75 5.039062 1.75 C 4.359375 1.75 3.746094 1.871094 3.179688 2.078125 C 3.257812 1.875 3.292969 1.652344 3.277344 1.433594 C 3.230469 0.65625 2.59375 0.03125 1.8125 0 C 0.9375 -0.0351562 0.21875 0.664062 0.21875 1.53125 C 0.21875 2.050781 0.476562 2.511719 0.875 2.789062 L 0.875 13.34375 C 0.875 13.707031 1.167969 14 1.53125 14 L 1.96875 14 C 2.332031 14 2.625 13.707031 2.625 13.34375 L 2.625 10.761719 C 3.398438 10.433594 4.363281 10.15625 5.753906 10.15625 C 7.21875 10.15625 8.429688 11.109375 10.273438 11.109375 C 11.589844 11.109375 12.640625 10.664062 13.621094 9.992188 C 13.859375 9.828125 14 9.558594 14 9.269531 L 14 2.625 C 14 1.984375 13.335938 1.5625 12.757812 1.832031 C 11.816406 2.265625 10.664062 2.699219 9.558594 2.699219 Z M 9.558594 2.699219 "/>
</g>
</svg>
