<?xml version="1.0" encoding="UTF-8"?>
<svg xmlns="http://www.w3.org/2000/svg" xmlns:xlink="http://www.w3.org/1999/xlink" width="20pt" height="16pt" viewBox="0 0 20 16" version="1.1">
<g id="surface1">
<path style=" stroke:none;fill-rule:nonzero;fill:rgb(0%,0%,0%);fill-opacity:1;" d="M 18.5 6 L 14.789062 6 C 15.1875 6.925781 15.011719 8.039062 14.257812 8.792969 L 10 13.050781 L 10 14.5 C 10 15.328125 10.671875 16 11.5 16 L 18.5 16 C 19.328125 16 20 15.328125 20 14.5 L 20 7.5 C 20 6.671875 19.328125 6 18.5 6 Z M 15 11.75 C 14.585938 11.75 14.25 11.414062 14.25 11 C 14.25 10.585938 14.585938 10.25 15 10.25 C 15.414062 10.25 15.75 10.585938 15.75 11 C 15.75 11.414062 15.414062 11.75 15 11.75 Z M 13.550781 5.914062 L 8.085938 0.449219 C 7.484375 -0.148438 6.515625 -0.148438 5.914062 0.449219 L 0.449219 5.914062 C -0.148438 6.515625 -0.148438 7.484375 0.449219 8.085938 L 5.914062 13.550781 C 6.515625 14.148438 7.484375 14.148438 8.085938 13.550781 L 13.550781 8.085938 C 14.148438 7.484375 14.148438 6.515625 13.550781 5.914062 Z M 3 7.75 C 2.585938 7.75 2.25 7.414062 2.25 7 C 2.25 6.585938 2.585938 6.25 3 6.25 C 3.414062 6.25 3.75 6.585938 3.75 7 C 3.75 7.414062 3.414062 7.75 3 7.75 Z M 7 11.75 C 6.585938 11.75 6.25 11.414062 6.25 11 C 6.25 10.585938 6.585938 10.25 7 10.25 C 7.414062 10.25 7.75 10.585938 7.75 11 C 7.75 11.414062 7.414062 11.75 7 11.75 Z M 7 7.75 C 6.585938 7.75 6.25 7.414062 6.25 7 C 6.25 6.585938 6.585938 6.25 7 6.25 C 7.414062 6.25 7.75 6.585938 7.75 7 C 7.75 7.414062 7.414062 7.75 7 7.75 Z M 7 3.75 C 6.585938 3.75 6.25 3.414062 6.25 3 C 6.25 2.585938 6.585938 2.25 7 2.25 C 7.414062 2.25 7.75 2.585938 7.75 3 C 7.75 3.414062 7.414062 3.75 7 3.75 Z M 11 7.75 C 10.585938 7.75 10.25 7.414062 10.25 7 C 10.25 6.585938 10.585938 6.25 11 6.25 C 11.414062 6.25 11.75 6.585938 11.75 7 C 11.75 7.414062 11.414062 7.75 11 7.75 Z M 11 7.75 "/>
</g>
</svg>
