<?xml version="1.0" encoding="UTF-8"?>
<svg xmlns="http://www.w3.org/2000/svg" xmlns:xlink="http://www.w3.org/1999/xlink" width="16pt" height="16pt" viewBox="0 0 16 16" version="1.1">
<g id="surface1">
<path style=" stroke:none;fill-rule:nonzero;fill:rgb(0%,0%,0%);fill-opacity:1;" d="M 8 0.25 C 3.71875 0.25 0.25 3.71875 0.25 8 C 0.25 12.28125 3.71875 15.75 8 15.75 C 12.28125 15.75 15.75 12.28125 15.75 8 C 15.75 3.71875 12.28125 0.25 8 0.25 Z M 12.066406 3.933594 C 14.109375 5.980469 14.253906 9.105469 12.710938 11.296875 L 4.703125 3.289062 C 6.894531 1.746094 10.023438 1.890625 12.066406 3.933594 Z M 3.933594 12.066406 C 1.890625 10.019531 1.746094 6.894531 3.289062 4.703125 L 11.296875 12.710938 C 9.105469 14.253906 5.976562 14.109375 3.933594 12.066406 Z M 3.933594 12.066406 "/>
</g>
</svg>
