<?xml version="1.0" encoding="UTF-8"?>
<svg xmlns="http://www.w3.org/2000/svg" xmlns:xlink="http://www.w3.org/1999/xlink" width="22pt" height="24pt" viewBox="0 0 22 24" version="1.1">
<g id="surface1">
<path style=" stroke:none;fill-rule:nonzero;fill:rgb(0%,0%,0%);fill-opacity:1;" d="M 9.410156 3.152344 L 10.507812 2.105469 C 10.972656 1.664062 11.726562 1.664062 12.183594 2.105469 L 21.789062 11.265625 C 22.253906 11.707031 22.253906 12.425781 21.789062 12.863281 L 12.183594 22.023438 C 11.71875 22.46875 10.96875 22.46875 10.507812 22.023438 L 9.410156 20.976562 C 8.941406 20.53125 8.953125 19.800781 9.433594 19.363281 L 15.386719 13.949219 L 1.1875 13.949219 C 0.527344 13.949219 0 13.445312 0 12.820312 L 0 11.3125 C 0 10.683594 0.527344 10.179688 1.1875 10.179688 L 15.386719 10.179688 L 9.433594 4.769531 C 8.949219 4.332031 8.9375 3.601562 9.410156 3.152344 Z M 9.410156 3.152344 "/>
</g>
</svg>
