<?xml version="1.0" encoding="UTF-8"?>
<svg xmlns="http://www.w3.org/2000/svg" xmlns:xlink="http://www.w3.org/1999/xlink" width="26pt" height="23pt" viewBox="0 0 26 23" version="1.1">
<g id="surface1">
<path style=" stroke:none;fill-rule:nonzero;fill:rgb(0%,0%,0%);fill-opacity:1;" d="M 21.082031 19.46875 L 4.472656 19.46875 C 4.121094 19.46875 3.832031 19.78125 3.832031 20.164062 L 3.832031 21.554688 C 3.832031 21.9375 4.121094 22.253906 4.472656 22.253906 L 21.082031 22.253906 C 21.4375 22.253906 21.726562 21.9375 21.726562 21.554688 L 21.726562 20.164062 C 21.726562 19.78125 21.4375 19.46875 21.082031 19.46875 Z M 23.644531 5.5625 C 22.582031 5.5625 21.726562 6.496094 21.726562 7.648438 C 21.726562 7.960938 21.789062 8.242188 21.902344 8.507812 L 19.011719 10.394531 C 18.394531 10.796875 17.597656 10.570312 17.246094 9.894531 L 13.992188 3.691406 C 14.417969 3.308594 14.699219 2.734375 14.699219 2.085938 C 14.699219 0.929688 13.839844 0 12.78125 0 C 11.722656 0 10.863281 0.929688 10.863281 2.085938 C 10.863281 2.734375 11.144531 3.308594 11.570312 3.691406 L 8.316406 9.894531 C 7.957031 10.570312 7.160156 10.796875 6.550781 10.394531 L 3.660156 8.507812 C 3.773438 8.246094 3.839844 7.960938 3.839844 7.648438 C 3.839844 6.496094 2.980469 5.5625 1.921875 5.5625 C 0.863281 5.5625 0 6.496094 0 7.648438 C 0 8.800781 0.855469 9.734375 1.914062 9.734375 C 2.019531 9.734375 2.125 9.714844 2.226562 9.699219 L 5.109375 18.082031 L 20.445312 18.082031 L 23.335938 9.699219 C 23.4375 9.714844 23.539062 9.734375 23.644531 9.734375 C 24.699219 9.734375 25.558594 8.800781 25.558594 7.648438 C 25.558594 6.496094 24.699219 5.5625 23.644531 5.5625 Z M 23.644531 5.5625 "/>
</g>
</svg>
