<?xml version="1.0" encoding="UTF-8"?>
<svg xmlns="http://www.w3.org/2000/svg" xmlns:xlink="http://www.w3.org/1999/xlink" width="16pt" height="16pt" viewBox="0 0 16 16" version="1.1">
<g id="surface1">
<path style=" stroke:none;fill-rule:nonzero;fill:rgb(0%,0%,0%);fill-opacity:1;" d="M 15.53125 8.53125 L 10.28125 13.78125 C 9.8125 14.25 9 13.921875 9 13.25 L 9 10.25 L 4.75 10.25 C 4.335938 10.25 4 9.914062 4 9.5 L 4 6.5 C 4 6.085938 4.335938 5.75 4.75 5.75 L 9 5.75 L 9 2.75 C 9 2.082031 9.808594 1.75 10.28125 2.21875 L 15.53125 7.46875 C 15.820312 7.761719 15.820312 8.238281 15.53125 8.53125 Z M 6 13.625 L 6 12.375 C 6 12.167969 5.832031 12 5.625 12 L 3 12 C 2.445312 12 2 11.554688 2 11 L 2 5 C 2 4.445312 2.445312 4 3 4 L 5.625 4 C 5.832031 4 6 3.832031 6 3.625 L 6 2.375 C 6 2.167969 5.832031 2 5.625 2 L 3 2 C 1.34375 2 0 3.34375 0 5 L 0 11 C 0 12.65625 1.34375 14 3 14 L 5.625 14 C 5.832031 14 6 13.832031 6 13.625 Z M 6 13.625 "/>
</g>
</svg>
