<?xml version="1.0" encoding="UTF-8"?>
<svg xmlns="http://www.w3.org/2000/svg" xmlns:xlink="http://www.w3.org/1999/xlink" width="146pt" height="212pt" viewBox="0 0 146 212" version="1.1">
<g id="surface1">
<path style=" stroke:none;fill-rule:nonzero;fill:rgb(0%,0%,0%);fill-opacity:1;" d="M 100.671875 106 L 142.179688 64.566406 C 147.273438 59.480469 147.273438 51.234375 142.179688 46.148438 L 132.957031 36.9375 C 127.863281 31.855469 119.605469 31.855469 114.507812 36.9375 L 73 78.375 L 31.492188 36.9375 C 26.398438 31.855469 18.140625 31.855469 13.042969 36.9375 L 3.820312 46.148438 C -1.273438 51.230469 -1.273438 59.476562 3.820312 64.566406 L 45.328125 106 L 3.820312 147.433594 C -1.273438 152.519531 -1.273438 160.765625 3.820312 165.851562 L 13.042969 175.0625 C 18.136719 180.144531 26.398438 180.144531 31.492188 175.0625 L 73 133.625 L 114.507812 175.0625 C 119.601562 180.144531 127.863281 180.144531 132.957031 175.0625 L 142.179688 165.851562 C 147.273438 160.769531 147.273438 152.523438 142.179688 147.433594 Z M 100.671875 106 "/>
</g>
</svg>
