<?xml version="1.0" encoding="UTF-8"?>
<svg xmlns="http://www.w3.org/2000/svg" xmlns:xlink="http://www.w3.org/1999/xlink" width="22pt" height="32pt" viewBox="0 0 22 32" version="1.1">
<g id="surface1">
<path style=" stroke:none;fill-rule:nonzero;fill:rgb(0%,0%,0%);fill-opacity:1;" d="M 15.171875 16 L 21.425781 9.746094 C 22.191406 8.976562 22.191406 7.734375 21.425781 6.964844 L 20.035156 5.574219 C 19.265625 4.808594 18.023438 4.808594 17.253906 5.574219 L 11 11.828125 L 4.746094 5.574219 C 3.976562 4.808594 2.734375 4.808594 1.964844 5.574219 L 0.574219 6.964844 C -0.191406 7.734375 -0.191406 8.976562 0.574219 9.746094 L 6.828125 16 L 0.574219 22.253906 C -0.191406 23.023438 -0.191406 24.265625 0.574219 25.035156 L 1.964844 26.425781 C 2.734375 27.191406 3.976562 27.191406 4.746094 26.425781 L 11 20.171875 L 17.253906 26.425781 C 18.023438 27.191406 19.265625 27.191406 20.035156 26.425781 L 21.425781 25.035156 C 22.191406 24.265625 22.191406 23.023438 21.425781 22.253906 Z M 15.171875 16 "/>
</g>
</svg>
